<?xml version="1.0" encoding="UTF-8"?>
<!-- The Best Svg Icon site in the world: iconSvg.co, Visit us! https://iconsvg.co -->
<svg id="svg" fill="#000000" stroke="#000000" width="200px" height="200px" version="1.1" viewBox="144 144 512 512" xmlns="http://www.w3.org/2000/svg">
    <g id="IconSvg_bgCarrier" stroke-width="0"></g>
    <g id="IconSvg_tracerCarrier" stroke-linecap="round" stroke-linejoin="round" stroke="#CCCCCC"></g>
    <g id="IconSvg_iconCarrier">
        <path xmlns="http://www.w3.org/2000/svg" d="m418.14 173.29c-7.0547 0-13.602 2.5195-18.641 7.0547l-198 181.37c-10.078 9.0703-24.688 18.137-27.711 32.746-3.0234 16.121 8.5664 26.199 19.145 35.77 37.281 33.754 173.31 159.2 204.55 187.92 12.09 11.082 30.73 12.09 41.816-1.5117 9.0703-11.082 8.0625-28.215-2.5195-38.289l-145.6-133.01c-6.5508-6.0469-2.5195-17.633 7.0547-17.633h299.77c16.625 0 30.23-13.602 28.719-30.23-1.5117-14.609-14.105-25.191-28.719-25.191l-299.77 0.003906c-9.0703 0-13.602-11.082-7.0547-17.633l145.6-133.51c18.137-16.125 6.0469-47.863-18.641-47.863z"/>

    </g>
</svg>