<?xml version="1.0" encoding="UTF-8"?>
<!-- The Best Svg Icon site in the world: iconSvg.co, Visit us! https://iconsvg.co -->
<svg id="svg" fill="#000000" stroke="#000000" width="200px" height="200px" version="1.1" viewBox="144 144 512 512" xmlns="http://www.w3.org/2000/svg">
    <g id="IconSvg_bgCarrier" stroke-width="0"></g>
    <g id="IconSvg_tracerCarrier" stroke-linecap="round" stroke-linejoin="round" stroke="#CCCCCC"></g>
    <g id="IconSvg_iconCarrier">
        <g xmlns="http://www.w3.org/2000/svg">
            <path d="m507.81 580.26h-105.9c-36.578 0-73.152 0.60547-109.73 0h-0.10156-1.4102c-2.3164-0.20312-1.8125-0.10156 1.2109 0.30078 0 0.10156-2.8203-0.60547-2.6211-0.50391-1.0078-0.20312-2.2148-0.90625-3.2227-0.90625-2.418-0.20312 4.0312 2.3164 0.50391 0.20312-0.70703-0.40234-1.5117-0.80469-2.3164-1.3086-4.2305-2.5195-0.30078 0.20312-0.20312 0.10156-0.10156 0-4.8359-4.2305-4.6367-4.6367 0.20313-0.30078 2.418 4.0312 0.50391 0.40234-0.50391-1.0078-1.1094-1.9141-1.6133-2.8203-1.9141-3.4258 0.70703 1.1094 0.40234 1.2109-0.20312 0-1.1094-3.5273-1.2109-3.8281-0.20312-0.80469-0.20312-1.9141-0.50391-2.6211 1.7148 4.5352 0.30078 1.8125 0.30078-0.20312v-6.6484-44.941-150.74c0-33.855 0.80469-67.914 0-101.77v-1.6133l-20.152 20.152h96.629 153.76 35.066l-20.152-20.152v116.98 167.77 19.445 1.4102 1.5117c0.10156 4.6367 1.2109-4.332 0.10156 0.10156-0.10156 0.50391-1.1094 5.2383-1.4102 5.1406 0.30078-0.80469 0.70703-1.6133 1.0078-2.3164-0.40234 0.80469-0.80469 1.6133-1.2109 2.3164-0.10156 0.20312-1.9141 3.4258-2.1172 3.3242 0.50391-0.70703 1.0078-1.3086 1.5117-2.0156-0.60547 0.70703-1.1094 1.3086-1.7148 1.9141-0.60547 0.60547-1.2109 1.2109-1.9141 1.8125-1.6133 1.4102-1.3086 1.1094 1.0078-0.70703 0.10156 0.20313-3.0234 1.9141-3.3242 2.1172-0.80469 0.40234-1.5117 0.80469-2.3164 1.2109 2.8203-1.1094 3.125-1.3086 1.1094-0.60547-1.3086 0.30078-2.6211 0.70703-3.9297 1.0078-2.2148 0.40234-1.8125 0.30078 1.3086-0.20312-0.79688 0.10156-1.7031 0.10156-2.7109 0.10156-10.578 0.20312-20.656 9.168-20.152 20.152 0.50391 10.781 8.8672 20.355 20.152 20.152 30.328-0.60547 54.512-24.688 55.016-55.016 0.10156-3.6289 0-7.3555 0-10.984v-66.504-183.49-44.738c0-10.883-9.2695-20.152-20.152-20.152h-96.629-153.76-35.066c-10.883 0-20.152 9.2695-20.152 20.152v87.461 154.57 52.297 10.68c0.10156 16.223 6.8516 32.242 19.547 42.621 11.082 8.9688 23.781 13.098 37.988 13.098h17.734 67.609 125.45 2.418c10.578 0 20.656-9.2695 20.152-20.152-0.40234-10.879-8.7656-20.148-20.152-20.148z"/>
            <path d="m212.08 279.18h37.484 89.578 108.82 93.707c15.215 0 30.531 0.40234 45.746 0h0.60547c10.578 0 20.656-9.2695 20.152-20.152-0.50391-10.883-8.8672-20.152-20.152-20.152h-37.484-89.578-108.82-93.707c-15.215 0-30.531-0.40234-45.746 0h-0.60547c-10.578 0-20.656 9.2695-20.152 20.152 0.40234 10.883 8.7656 20.152 20.152 20.152z"/>
            <path d="m349.92 258.93v-19.75-12.09-3.2227-0.40234c0-0.80469 0.50391-2.7188-0.20312-0.10156-0.80469 3.3242 0.30078-1.0078 0.40234-1.3086 0.70703-3.3242-1.9141 2.7188 0-0.10156-0.10156 0.20312 1.3086-2.3164 1.4102-2.2148 0.40234 0.20312-2.9219 2.9219-1.1094 1.5117 0.60547-0.50391 1.4102-1.2109 1.8125-1.8125 1.4102-1.8125-1.3086 1.5117-1.5117 1.1094 0-0.10156 1.5117-1.0078 1.7148-1.0078 3.5273-1.9141 0.30078 0.40234-0.60547 0.10156 0.30078 0.10156 6.3477-1.7148 2.6211-0.80469-2.6211 0.70703-0.70703 0.10156 0.20312 0.20312h1.1094 15.516 53.402 19.246c1.2109 0 2.418 0.10156 3.5273 0 0.10156 0 1.4102 0.10156 1.5117 0-0.90625 0.90625-4.1328-0.90625-1.3086-0.10156 0.60547 0.20312 1.3086 0.40234 1.9141 0.50391 2.5195 0.40234-3.125-2.0156-1.1094-0.50391 0.50391 0.40234 1.2109 0.70703 1.7148 0.90625 0.50391 0.30078 2.6211 1.1094 0.10156-0.10156-2.5195-1.2109 0.20312 0.40234 0.90625 1.0078 0.80469 0.70703 1.0078 2.0156 0.10156 0-1.3086-2.8203 0.20312 0.60547 0.60547 1.2109 1.0078 1.5117-0.20312 1.3086 0.10156 0-0.60547-1.6133-0.70703-1.6133-0.10156 0.10156 0.10156 0.40234 0.20312 0.90625 0.30078 1.3086 1.1094 3.6289 0.10156-3.9297-0.10156 0.20312v0.80469 11.387 23.277c0 10.578 9.2695 20.656 20.152 20.152 10.883-0.50391 20.152-8.8672 20.152-20.152v-22.27c0-10.379 0.60547-20.656-3.5273-30.43-7.1523-16.93-23.277-27.406-41.613-27.809-4.8359-0.10156-9.6719 0-14.508 0h-57.434c-19.246 0-39.598-1.6133-53.809 14.609-7.5586 8.5664-11.586 18.941-11.789 30.328-0.10156 3.125 0 6.3477 0 9.4727v25.996c0 10.578 9.2695 20.656 20.152 20.152 10.781-0.41797 20.051-8.7812 20.051-20.164z"/>
            <path d="m335.31 352.94v134.92 19.445c0 10.578 9.2695 20.656 20.152 20.152 10.883-0.50391 20.152-8.8672 20.152-20.152v-134.92-19.445c0-10.578-9.2695-20.656-20.152-20.152-10.883 0.50391-20.152 8.8672-20.152 20.152z"/>
            <path d="m424.38 352.94v134.92 19.445c0 10.578 9.2695 20.656 20.152 20.152 10.883-0.50391 20.152-8.8672 20.152-20.152v-134.92-19.445c0-10.578-9.2695-20.656-20.152-20.152-10.984 0.50391-20.152 8.8672-20.152 20.152z"/>
        </g>

    </g>
</svg>