<?xml version="1.0" encoding="UTF-8"?>
<!-- The Best Svg Icon site in the world: iconSvg.co, Visit us! https://iconsvg.co -->
<svg id="svg" fill="#000000" stroke="#000000" width="200px" height="200px" version="1.1" viewBox="144 144 512 512" xmlns="http://www.w3.org/2000/svg">
    <g id="IconSvg_bgCarrier" stroke-width="0"></g>
    <g id="IconSvg_tracerCarrier" stroke-linecap="round" stroke-linejoin="round" stroke="#CCCCCC"></g>
    <g id="IconSvg_iconCarrier">
        <g xmlns="http://www.w3.org/2000/svg">
            <path d="m605.4 258.23h-232.61c-17.887 0-32.848 13.352-34.914 31.035l-24.535 213.41c-2.4688 20.805 13.855 39.094 34.762 39.094h232.61c17.836 0 32.746-13.402 34.914-31.035l24.484-213.46c2.418-20.805-13.805-39.043-34.711-39.043zm-141.02 28.113h52.598l-7.0547 50.43h-52.547zm123.23 221.17c-0.40234 3.4766-3.375 6.0977-6.9023 6.0977h-232.61c-4.082 0-7.3047-3.5781-6.8008-7.6562l24.586-213.41c0.40234-3.5312 3.375-6.1992 6.9023-6.1992h63.277l-8.8672 62.574c-1.1562 8.4609 5.3906 16.07 13.957 16.07h80.961c7.0039 0 13-5.1875 13.957-12.141l9.2695-66.453h60.004c4.082 0 7.2539 3.6289 6.8008 7.707z"/>
            <path d="m272.33 474.31h-98.594c-7.7578 0-14.055 6.2969-14.055 14.055 0 7.7578 6.2969 14.055 14.055 14.055h98.594c7.7578 0 14.055-6.2969 14.055-14.055 0.003906-7.7539-6.293-14.055-14.055-14.055z"/>
            <path d="m277.07 377.48h-82.727c-7.707 0-14.008 6.2969-14.008 14.055s6.2969 14.055 14.008 14.055l82.727 0.003906c7.6562 0 14.008-6.2969 14.008-14.055-0.003906-7.7578-6.3516-14.059-14.008-14.059z"/>
            <path d="m291.07 283.67h-67.559c-7.8594 0-14.156 6.2461-14.156 14.008 0 7.7578 6.2969 14.105 14.156 14.105h67.562c7.7578 0 14.105-6.3477 14.105-14.105-0.003906-7.7578-6.3516-14.008-14.109-14.008z"/>
        </g>

    </g>
</svg>