<?xml version="1.0" encoding="UTF-8"?>
<!-- The Best Svg Icon site in the world: iconSvg.co, Visit us! https://iconsvg.co -->
<svg id="svg"  width="200px" height="200px" version="1.1" viewBox="144 144 512 512" xmlns="http://www.w3.org/2000/svg">
    <g id="IconSvg_bgCarrier" stroke-width="0"></g>
    <g id="IconSvg_tracerCarrier" stroke-linecap="round" stroke-linejoin="round" ></g>
    <g id="IconSvg_iconCarrier">
        <g xmlns="http://www.w3.org/2000/svg">
            <path d="m302.24 396.31h130.47v-77.445l-130.47 0.003906zm69.371-60.359h42.809c4.3438 0 7.8711 3.5273 7.8711 7.8711s-3.5273 7.8711-7.8711 7.8711h-42.809c-4.3438 0-7.8711-3.5273-7.8711-7.8711-0.003907-4.3477 3.5234-7.8711 7.8711-7.8711zm0 27.551h42.809c4.3438 0 7.8711 3.5273 7.8711 7.8711s-3.5273 7.8711-7.8711 7.8711h-42.809c-4.3438 0-7.8711-3.5273-7.8711-7.8711-0.003907-4.3438 3.5234-7.8711 7.8711-7.8711zm-57.875-19.68c0-4.3438 3.5273-7.8711 7.8711-7.8711h26.688c4.3438 0 7.8711 3.5273 7.8711 7.8711v27.551c0 4.3438-3.5273 7.8711-7.8711 7.8711h-26.688c-4.3438 0-7.8711-3.5273-7.8711-7.8711z"/>
            <path d="m552.95 350.11h41.078l17.02 30.246h-58.094z"/>
            <path d="m332.38 445.23c-21.082 0-38.258 17.16-38.258 38.273 0 21.082 17.16 38.258 38.258 38.258s38.258-17.16 38.258-38.258c0-21.113-17.16-38.273-38.258-38.273zm0 60.617c-12.328 0-22.355-10.027-22.355-22.355 0-12.328 10.027-22.355 22.355-22.355s22.355 10.027 22.355 22.355c0 12.324-10.027 22.355-22.355 22.355z"/>
            <path d="m340.44 363.5h-10.941v-11.809h10.941z"/>
            <path d="m263.92 473.35 13.887-0.37891c-0.56641 2.9453-0.83594 5.9844-0.91406 9.0859l-4.2812-0.003906c-4.7852-0.015626-8.6914-3.918-8.6914-8.7031z"/>
            <path d="m338.99 483.49c0 3.6367-2.9609 6.6133-6.6133 6.6133s-6.6133-2.9609-6.6133-6.6133c0-3.6523 2.9609-6.6133 6.6133-6.6133s6.6133 2.9766 6.6133 6.6133z"/>
            <path d="m555.46 483.49c0 3.6367-2.9609 6.6133-6.6133 6.6133s-6.6133-2.9609-6.6133-6.6133c0-3.6523 2.9609-6.6133 6.6133-6.6133s6.6133 2.9766 6.6133 6.6133z"/>
            <path d="m386.91 472.64h107.38c-0.59766 3.0391-0.86719 6.2031-0.94531 9.3984h-105.47c-0.09375-3.1953-0.34766-6.3594-0.96094-9.3984z"/>
            <path d="m603.38 472.64h27.805v0.70703c0 4.7852-3.9062 8.6914-8.6914 8.6914h-18.168c-0.078125-3.1953-0.33203-6.3594-0.94531-9.3984z"/>
            <path d="m631.18 418.37v36.871h-34.684c-9.7148-16.328-27.348-27.395-47.672-27.395-14.848 0-28.262 5.9336-38.258 15.445v-116.25c0-4.7852 3.9062-8.6914 8.6914-8.6914h51.766c3.1328 0 6.0469 1.6992 7.5898 4.4102l5.6055 9.9648h-39.973c-4.8008 0-8.6914 3.8906-8.6914 8.6914v47.625c0 4.8008 3.8906 8.6914 8.6914 8.6914h76.578l9.2266 16.391c0.75 1.2891 1.1289 2.7695 1.1289 4.25z"/>
            <path d="m548.83 445.23c-21.082 0-38.258 17.16-38.258 38.273 0 21.082 17.16 38.258 38.258 38.258s38.273-17.16 38.273-38.258c0-21.113-17.16-38.273-38.273-38.273zm0.015625 60.617c-12.328 0-22.355-10.027-22.355-22.355 0-12.328 10.027-22.355 22.355-22.355s22.355 10.027 22.355 22.355c0 12.324-10.027 22.355-22.355 22.355z"/>
            <path d="m493.19 327.04v-49.984c0-4.7852-3.9062-8.6914-8.6914-8.6914h-229.27c-4.7852 0-8.6914 3.9062-8.6914 8.6914v169.5c0 4.7852 3.9062 8.6914 8.6914 8.6914h29.488c9.7148-16.328 27.332-27.395 47.656-27.395s37.957 11.082 47.656 27.395h113.15zm-44.73 74.816c0 5.6211-4.582 10.188-10.203 10.188h-141.54c-5.6211 0-10.203-4.5664-10.203-10.188v-88.527c0-5.6211 4.582-10.203 10.203-10.203h141.54c5.6211 0 10.203 4.582 10.203 10.203z"/>
            <path d="m240.42 317.7c0 4.3438-3.5273 7.8711-7.8711 7.8711l-26.23 0.003906c-4.3438 0-7.8711-3.5273-7.8711-7.8711s3.5273-7.8711 7.8711-7.8711h26.23c4.3594-0.003907 7.8711 3.5234 7.8711 7.8672z"/>
            <path d="m240.42 364.89c0 4.3438-3.5273 7.8711-7.8711 7.8711h-38.039c-4.3438 0-7.8711-3.5273-7.8711-7.8711s3.5273-7.8711 7.8711-7.8711h38.039c4.3594-0.003906 7.8711 3.5078 7.8711 7.8711z"/>
            <path d="m240.42 412.06c0 4.3438-3.5273 7.8711-7.8711 7.8711h-52.477c-4.3438 0-7.8711-3.5273-7.8711-7.8711s3.5273-7.8711 7.8711-7.8711h52.477c4.3594 0 7.8711 3.5117 7.8711 7.8711z"/>
        </g>

    </g>
</svg>